<svg width="25" height="25" viewBox="0 0 25 25" fill="none" xmlns="http://www.w3.org/2000/svg">
<path fill-rule="evenodd" clip-rule="evenodd" d="M8.37848 4.73666L8.37848 2.4212H6.37848L6.37848 4.73666H5.86425C4.64922 4.73666 3.66425 5.72164 3.66425 6.93666V19.565C3.66425 20.78 4.64922 21.765 5.86425 21.765H18.5449C19.76 21.765 20.7449 20.78 20.7449 19.565V6.93666C20.7449 5.72163 19.76 4.73666 18.5449 4.73666H18.0307L18.0307 2.4212H16.0307L16.0307 4.73666H8.37848ZM5.86425 6.73666C5.75379 6.73666 5.66425 6.82621 5.66425 6.93666V9.13026H18.7449V6.93666C18.7449 6.82621 18.6554 6.73666 18.5449 6.73666H5.86425ZM5.66425 19.565V11.1303H18.7449V19.565C18.7449 19.6754 18.6554 19.765 18.5449 19.765H5.86425C5.75379 19.765 5.66425 19.6754 5.66425 19.565Z" fill="white"/>
</svg>
