<svg width="25" height="25" viewBox="0 0 25 25" fill="none" xmlns="http://www.w3.org/2000/svg">
<path d="M12.2046 12.0931C11.1046 12.0931 10.2046 11.1931 10.2046 10.0931C10.2046 8.99309 11.1046 8.09309 12.2046 8.09309C13.3046 8.09309 14.2046 8.99309 14.2046 10.0931C14.2046 11.1931 13.3046 12.0931 12.2046 12.0931ZM18.2046 10.2931C18.2046 6.66309 15.5546 4.09309 12.2046 4.09309C8.85459 4.09309 6.20459 6.66309 6.20459 10.2931C6.20459 12.6331 8.15459 15.7331 12.2046 19.4331C16.2546 15.7331 18.2046 12.6331 18.2046 10.2931ZM12.2046 2.09309C16.4046 2.09309 20.2046 5.31309 20.2046 10.2931C20.2046 13.6131 17.5346 17.5431 12.2046 22.0931C6.87459 17.5431 4.20459 13.6131 4.20459 10.2931C4.20459 5.31309 8.00459 2.09309 12.2046 2.09309Z" fill="white"/>
</svg>
