<svg width="24" height="24" viewBox="0 0 24 24" fill="none" xmlns="http://www.w3.org/2000/svg">
<path fill-rule="evenodd" clip-rule="evenodd" d="M24 12C24 18.6274 18.6274 24 12 24C5.37258 24 0 18.6274 0 12C0 5.37258 5.37258 0 12 0C18.6274 0 24 5.37258 24 12ZM12 22.9091C18.0249 22.9091 22.9091 18.0249 22.9091 12C22.9091 5.97508 18.0249 1.09091 12 1.09091C5.97508 1.09091 1.09091 5.97508 1.09091 12C1.09091 18.0249 5.97508 22.9091 12 22.9091Z" fill="white"/>
<path d="M12.0002 7.63636C12.8003 7.63636 13.4548 8.29091 13.4548 9.09091C13.4548 9.89091 12.8003 10.5455 12.0002 10.5455C11.2002 10.5455 10.5457 9.89091 10.5457 9.09091C10.5457 8.29091 11.2002 7.63636 12.0002 7.63636ZM12.0002 14.9091C13.9639 14.9091 16.2184 15.8473 16.3639 16.3636H7.63661C7.80389 15.84 10.0439 14.9091 12.0002 14.9091ZM12.0002 6.18182C10.393 6.18182 9.09116 7.48363 9.09116 9.09091C9.09116 10.6982 10.393 12 12.0002 12C13.6075 12 14.9093 10.6982 14.9093 9.09091C14.9093 7.48363 13.6075 6.18182 12.0002 6.18182ZM12.0002 13.4545C10.0584 13.4545 6.18207 14.4291 6.18207 16.3636V17.8182H17.8184V16.3636C17.8184 14.4291 13.9421 13.4545 12.0002 13.4545Z" fill="white"/>
</svg>
